<?xml version="1.0" encoding="UTF-8" standalone="no"?>
<!-- Created with Inkscape (http://www.inkscape.org/) -->

<svg
   width="210mm"
   height="297mm"
   viewBox="0 0 210 297"
   version="1.1"
   id="svg1"
   xml:space="preserve"
   inkscape:version="1.4.3 (0d15f75, 2025-12-25)"
   sodipodi:docname="core.svg"
   xmlns:inkscape="http://www.inkscape.org/namespaces/inkscape"
   xmlns:sodipodi="http://sodipodi.sourceforge.net/DTD/sodipodi-0.dtd"
   xmlns="http://www.w3.org/2000/svg"
   xmlns:svg="http://www.w3.org/2000/svg"><sodipodi:namedview
     id="namedview1"
     pagecolor="#ffffff"
     bordercolor="#000000"
     borderopacity="0.25"
     inkscape:showpageshadow="2"
     inkscape:pageopacity="0.0"
     inkscape:pagecheckerboard="0"
     inkscape:deskcolor="#d1d1d1"
     inkscape:document-units="mm"
     inkscape:zoom="0.61617745"
     inkscape:cx="352.98273"
     inkscape:cy="592.36183"
     inkscape:window-width="1413"
     inkscape:window-height="895"
     inkscape:window-x="0"
     inkscape:window-y="33"
     inkscape:window-maximized="0"
     inkscape:current-layer="layer1" /><defs
     id="defs1" /><g
     inkscape:label="Layer 1"
     inkscape:groupmode="layer"
     id="layer1"><path
       style="fill:#000000"
       d="m 95.010993,199.9884 c -5.306755,-0.76862 -11.254237,-2.94315 -16.404167,-5.99773 -5.25204,-3.11514 -12.800428,-9.95598 -16.555147,-15.00336 l -1.965686,-2.64243 -0.17017,-6.88257 c -0.09359,-3.78542 -0.195777,-10.09726 -0.227075,-14.02633 l -0.05691,-7.14375 1.509058,-9.12812 c 1.245983,-7.53681 1.480643,-9.451 1.34606,-10.98021 -0.302532,-3.43753 -1.091824,-5.27995 -3.898378,-9.09985 -1.004285,-1.36689 -1.941327,-2.67658 -2.082316,-2.91041 -0.231312,-0.38364 -0.288658,-0.38501 -0.587267,-0.014 -0.182008,0.22612 -1.295585,1.65487 -2.474616,3.175 l -2.143692,2.76385 -0.162179,3.57188 c -0.272232,5.99572 -1.655906,11.21927 -4.543209,17.15122 -1.33156,2.73568 -1.845501,3.53611 -2.481706,3.86511 -1.142392,0.59075 -1.766452,0.51774 -2.67249,-0.31269 -0.476963,-0.43715 -4.201643,-6.95903 -9.330737,-16.33802 l -8.536878,-15.61041 0.05967,-2.34918 c 0.08477,-3.33732 0.747307,-6.95702 1.924668,-10.5152 1.834446,-5.544002 4.018277,-9.240522 7.73617,-13.094832 l 2.325947,-2.41129 -0.37644,-1.82204 c -1.12432,-5.44193 -1.376447,-13.32904 -0.582635,-18.22621 1.317504,-8.12793 3.440252,-12.46343 8.438851,-17.23549 2.838573,-2.70993 5.920127,-4.854653 9.828484,-6.84051 4.217353,-2.142859 5.787686,-2.595888 7.851901,-2.265212 0.927924,0.148648 7.162008,1.166193 13.853519,2.26121 14.861181,2.431924 18.501266,2.816247 26.595077,2.807928 8.31981,-0.0086 11.92787,-0.402984 28.17812,-3.080429 12.0155,-1.979712 13.8924,-2.229681 14.81667,-1.973303 2.07462,0.575466 8.99577,4.235931 11.37708,6.017126 8.5537,6.39805 12.02639,13.45127 12.48043,25.34835 0.16763,4.39248 -0.10156,8.26894 -0.88233,12.70596 l -0.42228,2.3998 1.52057,1.43666 c 3.58442,3.38662 7.28366,9.59446 8.73934,14.665822 0.92095,3.20845 1.71532,7.96797 1.71532,10.27747 v 1.89051 l -8.62456,15.79244 c -4.74351,8.68585 -8.86068,16.00613 -9.14926,16.26729 -0.76335,0.69082 -2.40983,0.62464 -3.21216,-0.12912 -1.53608,-1.44306 -4.65943,-9.02466 -5.70394,-13.8457 -0.58158,-2.68431 -1.16552,-7.98222 -1.04174,-9.45135 0.0649,-0.77001 -0.25504,-1.32892 -2.30222,-4.02202 -1.30767,-1.72025 -2.45556,-3.10375 -2.55087,-3.07445 -0.2975,0.0914 -3.60913,4.73654 -4.56509,6.40327 -1.14139,1.99003 -1.74391,4.30141 -1.74391,6.68992 0,1.01807 0.66385,5.88244 1.47523,10.80972 l 1.47523,8.95869 -0.15849,12.17083 c -0.0872,6.69396 -0.22568,12.92397 -0.30781,13.84447 -0.14373,1.61102 -0.22638,1.7694 -2.20908,4.23333 -2.24921,2.79512 -6.68227,7.19311 -9.80203,9.72449 -7.50883,6.09267 -16.10738,10.03356 -24.47201,11.21604 -2.21448,0.31305 -8.623959,0.29995 -10.847921,-0.0222 z m 3.719739,-8.54776 c 0.5014,-0.36663 0.51359,-0.90738 0.51359,-22.77754 v -22.402 l -0.62462,-0.50578 c -0.55635,-0.45051 -1.08353,-0.50579 -4.823292,-0.50579 -4.748828,0 -5.826474,0.26094 -6.880858,1.66617 -0.633244,0.84395 -0.63577,0.87459 -0.626141,7.59424 0.0151,10.53941 1.29131,17.48177 4.790858,26.06146 1.432332,3.51159 4.984849,10.4539 5.584941,10.91406 0.570779,0.43769 1.431192,0.41902 2.065522,-0.0448 z m 7.125108,-0.0561 c 0.60987,-0.60986 4.43769,-8.32723 5.69233,-11.47646 2.74982,-6.90217 4.02395,-12.90254 4.52228,-21.29714 0.39779,-6.70085 0.24584,-10.49114 -0.4584,-11.43439 -1.29598,-1.73582 -1.52209,-1.79477 -6.88346,-1.79477 -4.54184,0 -4.92393,0.0372 -5.27226,0.51359 -0.31725,0.43386 -0.37555,3.94671 -0.37555,22.62915 0,19.58808 0.0471,22.18276 0.41188,22.70359 0.49415,0.7055 1.73217,0.78745 2.36318,0.15643 z M 81.861201,176.15286 c 0.447327,-0.44733 0.405872,-5.30472 -0.07181,-8.41375 -0.501967,-3.26711 -1.218044,-5.77382 -2.496463,-8.73914 -1.805843,-4.18869 -3.426039,-6.53352 -7.888593,-11.41679 -4.276252,-4.6794 -4.610952,-4.48243 -5.118788,3.0125 -0.571078,8.42829 0.0175,10.03134 6.391548,17.40801 7.051869,8.16111 7.345799,8.46667 8.14441,8.46667 0.397205,0 0.865067,-0.14288 1.039692,-0.3175 z m 45.355939,-5.3049 c 6.0297,-6.9596 6.68345,-7.81017 7.77845,-10.12031 1.34927,-2.84659 1.53759,-4.75307 1.04806,-10.61006 -0.22702,-2.71617 -0.54783,-5.10123 -0.71292,-5.30015 -0.73394,-0.88433 -1.46746,-0.40359 -4.59542,3.01177 -7.23194,7.89645 -10.06359,14.39401 -10.61132,24.34894 -0.15959,2.9005 -0.12815,3.30431 0.29358,3.77031 0.25977,0.28704 0.79993,0.5219 1.20035,0.5219 0.61868,0 1.45981,-0.84461 5.59922,-5.6224 z M 77.461513,148.51581 c 0.422069,-0.38197 0.483855,-0.88262 0.483855,-3.92073 0,-5.4103 -0.107809,-5.65362 -4.311281,-9.73045 -4.778044,-4.63409 -5.213719,-4.59181 -5.213719,0.50601 0,4.67651 0.256835,5.24671 4.372377,9.7071 2.871254,3.11184 3.553643,3.75765 4.073456,3.85506 0.0613,0.0115 0.329192,-0.17616 0.595312,-0.41699 z m 51.996997,-3.277 c 4.06042,-4.36289 4.40579,-5.09303 4.5349,-9.58724 0.10274,-3.57612 -0.0491,-4.16038 -1.08119,-4.16038 -0.56528,0 -1.4045,0.6877 -4.91974,4.03152 -3.21376,3.05703 -3.58758,3.97938 -3.60178,8.88679 -0.01,3.38761 0.041,3.8283 0.4779,4.1491 0.28894,0.21214 0.70009,0.28079 1.00537,0.16785 0.28408,-0.10509 1.89713,-1.67453 3.58454,-3.48764 z m -30.816328,-2.84091 0.60214,-0.60266 v -9.67285 -9.67285 l -0.76097,-0.65456 c -0.75816,-0.65214 -0.77884,-0.65425 -5.603902,-0.5724 -4.408017,0.0748 -4.90994,0.13136 -5.58903,0.63013 -1.606934,1.18022 -1.671272,1.57441 -1.671725,10.24229 -4.35e-4,8.3407 0.08513,9.01688 1.275153,10.07687 0.881129,0.78485 2.005042,0.93177 6.721254,0.87859 4.21865,-0.0476 4.45301,-0.078 5.02708,-0.65256 z m 16.299498,0.12123 c 0.54552,-0.29714 1.07195,-0.90097 1.38325,-1.58663 0.45626,-1.00494 0.5031,-1.81488 0.50837,-8.78993 0.006,-7.4473 -0.0125,-7.71922 -0.5895,-8.86354 -0.95561,-1.89504 -1.64238,-2.10569 -6.86671,-2.10618 -4.71883,-4.4e-4 -5.51558,0.16307 -6.00255,1.23184 -0.19727,0.43298 -0.29376,3.66285 -0.29376,9.83383 0,9.90609 0.0194,10.05157 1.41737,10.64307 0.31186,0.13194 2.59107,0.2123 5.06492,0.17856 3.76461,-0.0513 4.6415,-0.13954 5.37861,-0.54102 z M 77.893225,129.63574 c 0.135256,-7.36164 -0.444022,-8.94026 -5.326629,-14.51589 -1.736159,-1.98259 -3.349542,-3.6047 -3.585295,-3.6047 -0.382709,0 -0.428642,0.65211 -0.428642,6.08542 0,6.64766 0.101282,7.29303 1.514015,9.6473 0.976488,1.62729 6.697869,6.93717 7.349527,6.82093 0.329974,-0.0589 0.410386,-0.80614 0.477024,-4.43306 z m 49.976835,2.24788 c 2.81959,-2.44833 4.03358,-3.83661 4.97824,-5.69291 0.98666,-1.93886 1.22261,-3.91521 1.13612,-9.51618 -0.0735,-4.76065 -0.11645,-5.15938 -0.5555,-5.15938 -0.27782,0 -1.74018,1.43129 -3.51426,3.43958 -4.87949,5.5237 -5.66014,7.61336 -5.6652,15.16479 -0.002,2.81939 0.2324,4.01751 0.78564,4.01751 0.13193,0 1.40766,-1.01404 2.83496,-2.25341 z m -89.802132,-7.36643 c 1.197833,-0.50567 4.818137,-4.37786 6.59039,-7.04891 3.127114,-4.71305 5.86948,-10.98899 8.092948,-18.520842 l 1.210665,-4.10104 0.106482,-6.12407 c 0.09182,-5.28068 0.04716,-6.23877 -0.324252,-6.95701 -0.461528,-0.8925 -1.819124,-1.86527 -2.605415,-1.86689 -0.264319,-5.4e-4 -2.025392,1.12602 -3.913495,2.50347 -1.888102,1.37744 -4.190389,3.00246 -5.116193,3.61114 l -1.683278,1.10669 -3.342515,8.45135 c -3.790388,9.583762 -4.116389,10.645952 -4.118793,13.419972 -0.0026,3.01075 1.311565,13.79017 1.769921,14.51767 0.337911,0.53632 1.662888,1.32689 2.275202,1.35753 0.113814,0.006 0.590064,-0.15138 1.058333,-0.34906 z m 128.906722,-0.3244 c 0.3634,-0.23811 0.78062,-0.86626 0.92717,-1.39591 0.34919,-1.26204 1.58938,-12.11225 1.58938,-13.90526 0,-2.24798 -0.81528,-4.82728 -4.25301,-13.455292 l -3.24382,-8.14132 -3.45401,-2.43296 c -1.8997,-1.33812 -4.19719,-3.00257 -5.10553,-3.69878 -0.90834,-0.69621 -1.87636,-1.26583 -2.15116,-1.26583 -0.79865,0 -2.25773,1.12165 -2.76029,2.12194 -0.39059,0.77742 -0.46267,1.68386 -0.46302,5.8222 -3.8e-4,4.53262 0.0585,5.14259 0.78223,8.10647 2.69717,11.045332 6.91717,20.105102 11.89231,25.531192 2.93479,3.2008 4.47431,3.87031 6.23975,2.71355 z M 30.995273,114.02869 c 0.05376,-8.82802 0.419244,-10.76841 3.082795,-16.366742 1.263944,-2.65659 1.418402,-3.47701 0.654608,-3.47701 -0.511152,0 -2.855733,2.53488 -4.002077,4.3269 -2.083364,3.256822 -3.47983,8.044922 -3.75388,12.871022 -0.179104,3.15407 0.143962,4.47145 1.901565,7.7541 0.775123,1.44768 1.073312,1.78505 1.520092,1.71979 0.546793,-0.0799 0.556478,-0.19066 0.596897,-6.82806 z m 142.657277,4.80639 c 1.72129,-3.18864 2.02944,-4.74211 1.65219,-8.32923 -0.39659,-3.77108 -1.30469,-7.35818 -2.4829,-9.80778 -1.76167,-3.662662 -4.70128,-6.977492 -5.55751,-6.266882 -0.31435,0.26089 -0.16777,0.74076 0.92506,3.02851 2.7548,5.766912 3.15389,7.879102 3.15389,16.691842 0,3.52195 0.0794,6.48292 0.17639,6.57993 0.52551,0.52551 1.10235,0.0126 2.13288,-1.89639 z m -74.912248,-1.13 c 0.4683,-0.51747 0.50402,-1.04202 0.50402,-7.40098 0,-6.73 -0.01,-6.85389 -0.59101,-7.43506 -0.56917,-0.56917 -0.66802,-0.57979 -2.674655,-0.28732 -2.956181,0.43087 -6.122287,1.54628 -8.577172,3.02171 -4.49079,2.69904 -5.566265,3.95123 -5.54377,6.4547 0.01032,1.1482 0.206192,1.73784 1.06681,3.21142 1.053732,1.80424 1.682498,2.53022 2.429176,2.80477 0.218281,0.0803 3.206156,0.15533 6.639722,0.16682 6.024199,0.0201 6.260499,0.001 6.746879,-0.53606 z m 18.629888,0.15908 c 1.16568,-0.60279 2.97362,-3.81495 3.11642,-5.53691 0.18986,-2.28945 -0.65205,-3.54418 -3.77979,-5.63314 -3.51514,-2.34771 -7.3782,-3.84006 -10.8906,-4.20718 -1.4173,-0.14813 -1.67592,-0.10109 -2.17215,0.39514 -0.54542,0.54542 -0.56329,0.77883 -0.56329,7.35926 0,6.61343 0.0155,6.81241 0.57529,7.40833 0.56952,0.60623 0.63729,0.61237 6.76001,0.61237 4.98688,0 6.33374,-0.0771 6.95411,-0.39787 z m -68.026382,-1.88372 c 1.542087,-1.7519 2.834854,-3.77724 4.005441,-6.27521 1.272717,-2.71591 1.562731,-3.96064 1.570901,-6.74229 0.0096,-3.262352 -0.495302,-2.88235 -2.222855,1.67304 -1.364616,3.59837 -2.671903,6.6542 -4.357774,10.18646 -0.451451,0.94589 -0.820913,1.86862 -0.821028,2.05052 -4.27e-4,0.67615 0.780732,0.29419 1.825315,-0.89252 z m 105.438382,0.99853 c 0.0764,-0.1236 -0.28533,-1.10586 -0.80382,-2.18281 -1.43382,-2.97818 -3.88736,-8.81061 -4.85844,-11.54924 -0.56181,-1.58441 -1.00506,-2.44739 -1.25704,-2.44739 -0.32596,0 -0.37153,0.4838 -0.28038,2.97656 0.0959,2.6228 0.21016,3.21516 0.96143,4.98418 1.14839,2.70415 2.9928,5.6592 4.48558,7.18665 1.25081,1.27986 1.50647,1.4304 1.75267,1.03205 z M 83.703757,103.32465 c 2.991516,-1.31529 6.277972,-2.36135 10.513486,-3.346382 2.360956,-0.54908 3.920039,-1.05281 4.299479,-1.38914 0.58648,-0.51985 0.59531,-0.62284 0.59531,-6.94221 0,-3.52799 -0.0773,-6.6161 -0.17189,-6.86247 -0.0945,-0.24636 -0.52893,-0.59806 -0.96531,-0.78154 -0.734986,-0.30904 -1.516137,-0.0925 -10.605913,2.93983 -5.396869,1.8004 -10.071582,3.27345 -10.388251,3.27345 -0.318115,0 -0.88228,0.36428 -1.260739,0.81405 -0.858313,1.02005 -0.910467,2.63762 -0.162663,5.04506 0.978691,3.15075 4.440278,8.163812 5.637224,8.163812 0.236178,0 1.365348,-0.41151 2.509267,-0.91446 z m 38.823563,-0.28995 c 2.39296,-2.46217 4.89684,-7.555102 4.89414,-9.954742 -10e-4,-1.21915 -0.86974,-2.55194 -1.77674,-2.727 -0.4047,-0.0781 -5.21377,-1.61347 -10.68682,-3.41189 -9.19655,-3.02196 -10.01099,-3.24465 -10.74217,-2.93722 -0.43514,0.18297 -0.86852,0.53424 -0.96306,0.7806 -0.0945,0.24637 -0.17189,3.33448 -0.17189,6.86247 0,7.75231 -0.3393,7.1322 4.49792,8.22048 3.97796,0.894972 7.84821,2.126292 10.71562,3.409202 1.16417,0.52085 2.32947,0.9505 2.58956,0.95476 0.26009,0.004 0.99964,-0.53423 1.64344,-1.19666 z M 82.605756,84.427158 c 4.640068,-1.58324 9.530682,-3.14329 10.868032,-3.46678 2.752288,-0.66575 4.162694,-1.62847 5.184354,-3.53876 0.56197,-1.05078 0.58984,-1.42936 0.67482,-9.16584 0.10297,-9.37465 -0.0256,-10.38801 -1.50571,-11.86812 -1.189621,-1.18962 -9.182306,-5.2465 -12.605843,-6.3984 -5.001971,-1.68299 -7.426658,-1.60169 -11.641666,0.39033 -6.15744,2.91001 -12.121279,8.96607 -13.780577,13.99366 -0.91134,2.76131 -2.026446,4.97895 -4.051412,8.05714 -0.888188,1.35015 -1.614886,2.61688 -1.614886,2.81496 0,0.7573 0.975074,1.41999 2.679678,1.82118 3.435219,0.80851 5.082174,1.83979 8.565113,5.36327 1.74625,1.76658 3.591719,3.42702 4.101042,3.68988 1.099698,0.56754 3.032493,1.12938 3.99893,1.16244 0.380401,0.013 4.488057,-1.27172 9.128125,-2.85496 z m 48.134544,2.47103 c 2.0893,-0.54002 4.09753,-1.90591 5.54759,-3.77316 2.63179,-3.38899 5.20311,-4.96851 10.39494,-6.38543 0.83179,-0.227 1.20689,-0.49547 1.39927,-1.00147 0.23126,-0.60826 0.0884,-0.95084 -1.18921,-2.85114 -2.01599,-2.9986 -3.41531,-5.71446 -4.2284,-8.20665 -0.38045,-1.16613 -1.18803,-2.89254 -1.79462,-3.83646 -1.58978,-2.4739 -5.9735,-6.73402 -8.92502,-8.67337 -6.38743,-4.19698 -9.89294,-4.34829 -18.28073,-0.78906 -3.49477,1.48295 -8.36727,4.14965 -9.1982,5.03413 -1.31438,1.3991 -1.38514,1.96706 -1.38514,11.11829 v 8.55551 l 0.6972,1.39909 c 0.95957,1.9256 2.13793,2.69937 5.43032,3.56582 1.50481,0.39602 6.36743,1.95739 10.80582,3.46972 4.43838,1.51232 8.31266,2.7569 8.60951,2.76572 0.29685,0.009 1.24935,-0.16737 2.11667,-0.39154 z m 32.54981,-6.86846 c 0.93794,-6.9465 0.59817,-14.88631 -0.8531,-19.93559 -1.33298,-4.63771 -4.22107,-8.58782 -8.20247,-11.21871 -6.27871,-4.148948 -11.11334,-4.865646 -18.9796,-2.81359 -2.71858,0.70918 -6.28302,2.0746 -6.11701,2.34322 0.0716,0.11577 0.67484,0.29218 1.34065,0.39202 1.5695,0.23536 4.19301,1.61343 6.37107,3.34656 4.24024,3.37406 8.38232,9.56435 10.16139,15.18609 1.62071,5.12132 5.46495,9.82896 13.48433,16.51283 l 1.98437,1.65391 0.17297,-1.01358 c 0.0951,-0.55746 0.38197,-2.56139 0.6374,-4.45316 z m -120.127765,2.64334 c 3.904541,-3.2945 7.957381,-7.56313 9.746799,-10.26575 1.005213,-1.51822 1.742936,-3.07894 2.463609,-5.21201 2.775297,-8.2144 9.077363,-15.7689 14.975769,-17.95196 0.842204,-0.31171 1.804626,-0.56674 2.138715,-0.56674 1.818168,0 0.471925,-0.77646 -3.617479,-2.08641 -5.99128,-1.919177 -11.092459,-2.123515 -15.197814,-0.60878 -6.120213,2.25815 -10.873375,6.60566 -13.038335,11.92558 -2.237748,5.49879 -2.783972,14.43567 -1.449174,23.71023 0.453924,3.154 0.552672,3.57188 0.844067,3.57188 0.08355,0 1.493777,-1.13222 3.133843,-2.51604 z"
       id="path5" /><path
       style="fill:#000000"
       d="m 95.010993,199.9884 c -5.306755,-0.76862 -11.254237,-2.94315 -16.404167,-5.99773 -5.25204,-3.11514 -12.800428,-9.95598 -16.555147,-15.00336 l -1.965686,-2.64243 -0.17017,-6.88257 c -0.09359,-3.78542 -0.195777,-10.09726 -0.227075,-14.02633 l -0.05691,-7.14375 1.509058,-9.12812 c 1.245983,-7.53681 1.480643,-9.451 1.34606,-10.98021 -0.302532,-3.43753 -1.091824,-5.27995 -3.898378,-9.09985 -1.004285,-1.36689 -1.941327,-2.67658 -2.082316,-2.91041 -0.231312,-0.38364 -0.288658,-0.38501 -0.587267,-0.014 -0.182008,0.22612 -1.295585,1.65487 -2.474616,3.175 l -2.143692,2.76385 -0.162179,3.57188 c -0.272232,5.99572 -1.655906,11.21927 -4.543209,17.15122 -1.33156,2.73568 -1.845501,3.53611 -2.481706,3.86511 -1.142392,0.59075 -1.766452,0.51774 -2.67249,-0.31269 -0.476963,-0.43715 -4.201643,-6.95903 -9.330737,-16.33802 l -8.536878,-15.61041 0.05967,-2.34918 c 0.08477,-3.33732 0.747307,-6.95702 1.924668,-10.5152 1.834446,-5.544002 4.018277,-9.240522 7.73617,-13.094832 l 2.325947,-2.41129 -0.37644,-1.82204 c -1.12432,-5.44193 -1.376447,-13.32904 -0.582635,-18.22621 1.317504,-8.12793 3.440252,-12.46343 8.438851,-17.23549 2.838573,-2.70993 5.920127,-4.854653 9.828484,-6.84051 4.217353,-2.142859 5.787686,-2.595888 7.851901,-2.265212 0.927924,0.148648 7.162008,1.166193 13.853519,2.26121 14.861181,2.431924 18.501266,2.816247 26.595077,2.807928 8.31981,-0.0086 11.92787,-0.402984 28.17812,-3.080429 12.0155,-1.979712 13.8924,-2.229681 14.81667,-1.973303 2.07462,0.575466 8.99577,4.235931 11.37708,6.017126 8.5537,6.39805 12.02639,13.45127 12.48043,25.34835 0.16763,4.39248 -0.10156,8.26894 -0.88233,12.70596 l -0.42228,2.3998 1.52057,1.43666 c 3.58442,3.38662 7.28366,9.59446 8.73934,14.665822 0.92095,3.20845 1.71532,7.96797 1.71532,10.27747 v 1.89051 l -8.62456,15.79244 c -4.74351,8.68585 -8.86068,16.00613 -9.14926,16.26729 -0.76335,0.69082 -2.40983,0.62464 -3.21216,-0.12912 -1.53608,-1.44306 -4.65943,-9.02466 -5.70394,-13.8457 -0.58158,-2.68431 -1.16552,-7.98222 -1.04174,-9.45135 0.0649,-0.77001 -0.25504,-1.32892 -2.30222,-4.02202 -1.30767,-1.72025 -2.45556,-3.10375 -2.55087,-3.07445 -0.2975,0.0914 -3.60913,4.73654 -4.56509,6.40327 -1.14139,1.99003 -1.74391,4.30141 -1.74391,6.68992 0,1.01807 0.66385,5.88244 1.47523,10.80972 l 1.47523,8.95869 -0.15849,12.17083 c -0.0872,6.69396 -0.22568,12.92397 -0.30781,13.84447 -0.14373,1.61102 -0.22638,1.7694 -2.20908,4.23333 -2.24921,2.79512 -6.68227,7.19311 -9.80203,9.72449 -7.50883,6.09267 -16.10738,10.03356 -24.47201,11.21604 -2.21448,0.31305 -8.623959,0.29995 -10.847921,-0.0222 z m 3.719739,-8.54776 c 0.5014,-0.36663 0.51359,-0.90738 0.51359,-22.77754 v -22.402 l -0.62462,-0.50578 c -0.55635,-0.45051 -1.08353,-0.50579 -4.823292,-0.50579 -4.748828,0 -5.826474,0.26094 -6.880858,1.66617 -0.633244,0.84395 -0.63577,0.87459 -0.626141,7.59424 0.0151,10.53941 1.29131,17.48177 4.790858,26.06146 1.432332,3.51159 4.984849,10.4539 5.584941,10.91406 0.570779,0.43769 1.431192,0.41902 2.065522,-0.0448 z m 7.125108,-0.0561 c 0.60987,-0.60986 4.43769,-8.32723 5.69233,-11.47646 2.74982,-6.90217 4.02395,-12.90254 4.52228,-21.29714 0.39779,-6.70085 0.24584,-10.49114 -0.4584,-11.43439 -1.29598,-1.73582 -1.52209,-1.79477 -6.88346,-1.79477 -4.54184,0 -4.92393,0.0372 -5.27226,0.51359 -0.31725,0.43386 -0.37555,3.94671 -0.37555,22.62915 0,19.58808 0.0471,22.18276 0.41188,22.70359 0.49415,0.7055 1.73217,0.78745 2.36318,0.15643 z M 81.861201,176.15286 c 0.447327,-0.44733 0.405872,-5.30472 -0.07181,-8.41375 -0.501967,-3.26711 -1.218044,-5.77382 -2.496463,-8.73914 -1.805843,-4.18869 -3.426039,-6.53352 -7.888593,-11.41679 -4.276252,-4.6794 -4.610952,-4.48243 -5.118788,3.0125 -0.571078,8.42829 0.0175,10.03134 6.391548,17.40801 7.051869,8.16111 7.345799,8.46667 8.14441,8.46667 0.397205,0 0.865067,-0.14288 1.039692,-0.3175 z m 45.355939,-5.3049 c 6.0297,-6.9596 6.68345,-7.81017 7.77845,-10.12031 1.34927,-2.84659 1.53759,-4.75307 1.04806,-10.61006 -0.22702,-2.71617 -0.54783,-5.10123 -0.71292,-5.30015 -0.73394,-0.88433 -1.46746,-0.40359 -4.59542,3.01177 -7.23194,7.89645 -10.06359,14.39401 -10.61132,24.34894 -0.15959,2.9005 -0.12815,3.30431 0.29358,3.77031 0.25977,0.28704 0.79993,0.5219 1.20035,0.5219 0.61868,0 1.45981,-0.84461 5.59922,-5.6224 z M 77.461513,148.51581 c 0.422069,-0.38197 0.483855,-0.88262 0.483855,-3.92073 0,-5.4103 -0.107809,-5.65362 -4.311281,-9.73045 -4.778044,-4.63409 -5.213719,-4.59181 -5.213719,0.50601 0,4.67651 0.256835,5.24671 4.372377,9.7071 2.871254,3.11184 3.553643,3.75765 4.073456,3.85506 0.0613,0.0115 0.329192,-0.17616 0.595312,-0.41699 z m 51.996997,-3.277 c 4.06042,-4.36289 4.40579,-5.09303 4.5349,-9.58724 0.10274,-3.57612 -0.0491,-4.16038 -1.08119,-4.16038 -0.56528,0 -1.4045,0.6877 -4.91974,4.03152 -3.21376,3.05703 -3.58758,3.97938 -3.60178,8.88679 -0.01,3.38761 0.041,3.8283 0.4779,4.1491 0.28894,0.21214 0.70009,0.28079 1.00537,0.16785 0.28408,-0.10509 1.89713,-1.67453 3.58454,-3.48764 z m -30.816328,-2.84091 0.60214,-0.60266 v -9.67285 -9.67285 l -0.76097,-0.65456 c -0.75816,-0.65214 -0.77884,-0.65425 -5.603902,-0.5724 -4.408017,0.0748 -4.90994,0.13136 -5.58903,0.63013 -1.606934,1.18022 -1.671272,1.57441 -1.671725,10.24229 -4.35e-4,8.3407 0.08513,9.01688 1.275153,10.07687 0.881129,0.78485 2.005042,0.93177 6.721254,0.87859 4.21865,-0.0476 4.45301,-0.078 5.02708,-0.65256 z m 16.299498,0.12123 c 0.54552,-0.29714 1.07195,-0.90097 1.38325,-1.58663 0.45626,-1.00494 0.5031,-1.81488 0.50837,-8.78993 0.006,-7.4473 -0.0125,-7.71922 -0.5895,-8.86354 -0.95561,-1.89504 -1.64238,-2.10569 -6.86671,-2.10618 -4.71883,-4.4e-4 -5.51558,0.16307 -6.00255,1.23184 -0.19727,0.43298 -0.29376,3.66285 -0.29376,9.83383 0,9.90609 0.0194,10.05157 1.41737,10.64307 0.31186,0.13194 2.59107,0.2123 5.06492,0.17856 3.76461,-0.0513 4.6415,-0.13954 5.37861,-0.54102 z M 77.893225,129.63574 c 0.135256,-7.36164 -0.444022,-8.94026 -5.326629,-14.51589 -1.736159,-1.98259 -3.349542,-3.6047 -3.585295,-3.6047 -0.382709,0 -0.428642,0.65211 -0.428642,6.08542 0,6.64766 0.101282,7.29303 1.514015,9.6473 0.976488,1.62729 6.697869,6.93717 7.349527,6.82093 0.329974,-0.0589 0.410386,-0.80614 0.477024,-4.43306 z m 49.976835,2.24788 c 2.81959,-2.44833 4.03358,-3.83661 4.97824,-5.69291 0.98666,-1.93886 1.22261,-3.91521 1.13612,-9.51618 -0.0735,-4.76065 -0.11645,-5.15938 -0.5555,-5.15938 -0.27782,0 -1.74018,1.43129 -3.51426,3.43958 -4.87949,5.5237 -5.66014,7.61336 -5.6652,15.16479 -0.002,2.81939 0.2324,4.01751 0.78564,4.01751 0.13193,0 1.40766,-1.01404 2.83496,-2.25341 z m -89.802132,-7.36643 c 1.197833,-0.50567 4.818137,-4.37786 6.59039,-7.04891 3.127114,-4.71305 5.86948,-10.98899 8.092948,-18.520842 l 1.210665,-4.10104 0.106482,-6.12407 c 0.09182,-5.28068 0.04716,-6.23877 -0.324252,-6.95701 -0.461528,-0.8925 -1.819124,-1.86527 -2.605415,-1.86689 -0.264319,-5.4e-4 -2.025392,1.12602 -3.913495,2.50347 -1.888102,1.37744 -4.190389,3.00246 -5.116193,3.61114 l -1.683278,1.10669 -3.342515,8.45135 c -3.790388,9.583762 -4.116389,10.645952 -4.118793,13.419972 -0.0026,3.01075 1.311565,13.79017 1.769921,14.51767 0.337911,0.53632 1.662888,1.32689 2.275202,1.35753 0.113814,0.006 0.590064,-0.15138 1.058333,-0.34906 z m 128.906722,-0.3244 c 0.3634,-0.23811 0.78062,-0.86626 0.92717,-1.39591 0.34919,-1.26204 1.58938,-12.11225 1.58938,-13.90526 0,-2.24798 -0.81528,-4.82728 -4.25301,-13.455292 l -3.24382,-8.14132 -3.45401,-2.43296 c -1.8997,-1.33812 -4.19719,-3.00257 -5.10553,-3.69878 -0.90834,-0.69621 -1.87636,-1.26583 -2.15116,-1.26583 -0.79865,0 -2.25773,1.12165 -2.76029,2.12194 -0.39059,0.77742 -0.46267,1.68386 -0.46302,5.8222 -3.8e-4,4.53262 0.0585,5.14259 0.78223,8.10647 2.69717,11.045332 6.91717,20.105102 11.89231,25.531192 2.93479,3.2008 4.47431,3.87031 6.23975,2.71355 z M 30.995273,114.02869 c 0.05376,-8.82802 0.419244,-10.76841 3.082795,-16.366742 1.263944,-2.65659 1.418402,-3.47701 0.654608,-3.47701 -0.511152,0 -2.855733,2.53488 -4.002077,4.3269 -2.083364,3.256822 -3.47983,8.044922 -3.75388,12.871022 -0.179104,3.15407 0.143962,4.47145 1.901565,7.7541 0.775123,1.44768 1.073312,1.78505 1.520092,1.71979 0.546793,-0.0799 0.556478,-0.19066 0.596897,-6.82806 z m 142.657277,4.80639 c 1.72129,-3.18864 2.02944,-4.74211 1.65219,-8.32923 -0.39659,-3.77108 -1.30469,-7.35818 -2.4829,-9.80778 -1.76167,-3.662662 -4.70128,-6.977492 -5.55751,-6.266882 -0.31435,0.26089 -0.16777,0.74076 0.92506,3.02851 2.7548,5.766912 3.15389,7.879102 3.15389,16.691842 0,3.52195 0.0794,6.48292 0.17639,6.57993 0.52551,0.52551 1.10235,0.0126 2.13288,-1.89639 z m -74.912248,-1.13 c 0.4683,-0.51747 0.50402,-1.04202 0.50402,-7.40098 0,-6.73 -0.01,-6.85389 -0.59101,-7.43506 -0.56917,-0.56917 -0.66802,-0.57979 -2.674655,-0.28732 -2.956181,0.43087 -6.122287,1.54628 -8.577172,3.02171 -4.49079,2.69904 -5.566265,3.95123 -5.54377,6.4547 0.01032,1.1482 0.206192,1.73784 1.06681,3.21142 1.053732,1.80424 1.682498,2.53022 2.429176,2.80477 0.218281,0.0803 3.206156,0.15533 6.639722,0.16682 6.024199,0.0201 6.260499,0.001 6.746879,-0.53606 z m 18.629888,0.15908 c 1.16568,-0.60279 2.97362,-3.81495 3.11642,-5.53691 0.18986,-2.28945 -0.65205,-3.54418 -3.77979,-5.63314 -3.51514,-2.34771 -7.3782,-3.84006 -10.8906,-4.20718 -1.4173,-0.14813 -1.67592,-0.10109 -2.17215,0.39514 -0.54542,0.54542 -0.56329,0.77883 -0.56329,7.35926 0,6.61343 0.0155,6.81241 0.57529,7.40833 0.56952,0.60623 0.63729,0.61237 6.76001,0.61237 4.98688,0 6.33374,-0.0771 6.95411,-0.39787 z m -68.026382,-1.88372 c 1.542087,-1.7519 2.834854,-3.77724 4.005441,-6.27521 1.272717,-2.71591 1.562731,-3.96064 1.570901,-6.74229 0.0096,-3.262352 -0.495302,-2.88235 -2.222855,1.67304 -1.364616,3.59837 -2.671903,6.6542 -4.357774,10.18646 -0.451451,0.94589 -0.820913,1.86862 -0.821028,2.05052 -4.27e-4,0.67615 0.780732,0.29419 1.825315,-0.89252 z m 105.438382,0.99853 c 0.0764,-0.1236 -0.28533,-1.10586 -0.80382,-2.18281 -1.43382,-2.97818 -3.88736,-8.81061 -4.85844,-11.54924 -0.56181,-1.58441 -1.00506,-2.44739 -1.25704,-2.44739 -0.32596,0 -0.37153,0.4838 -0.28038,2.97656 0.0959,2.6228 0.21016,3.21516 0.96143,4.98418 1.14839,2.70415 2.9928,5.6592 4.48558,7.18665 1.25081,1.27986 1.50647,1.4304 1.75267,1.03205 z M 83.703757,103.32465 c 2.991516,-1.31529 6.277972,-2.36135 10.513486,-3.346382 2.360956,-0.54908 3.920039,-1.05281 4.299479,-1.38914 0.58648,-0.51985 0.59531,-0.62284 0.59531,-6.94221 0,-3.52799 -0.0773,-6.6161 -0.17189,-6.86247 -0.0945,-0.24636 -0.52893,-0.59806 -0.96531,-0.78154 -0.734986,-0.30904 -1.516137,-0.0925 -10.605913,2.93983 -5.396869,1.8004 -10.071582,3.27345 -10.388251,3.27345 -0.318115,0 -0.88228,0.36428 -1.260739,0.81405 -0.858313,1.02005 -0.910467,2.63762 -0.162663,5.04506 0.978691,3.15075 4.440278,8.163812 5.637224,8.163812 0.236178,0 1.365348,-0.41151 2.509267,-0.91446 z m 38.823563,-0.28995 c 2.39296,-2.46217 4.89684,-7.555102 4.89414,-9.954742 -10e-4,-1.21915 -0.86974,-2.55194 -1.77674,-2.727 -0.4047,-0.0781 -5.21377,-1.61347 -10.68682,-3.41189 -9.19655,-3.02196 -10.01099,-3.24465 -10.74217,-2.93722 -0.43514,0.18297 -0.86852,0.53424 -0.96306,0.7806 -0.0945,0.24637 -0.17189,3.33448 -0.17189,6.86247 0,7.75231 -0.3393,7.1322 4.49792,8.22048 3.97796,0.894972 7.84821,2.126292 10.71562,3.409202 1.16417,0.52085 2.32947,0.9505 2.58956,0.95476 0.26009,0.004 0.99964,-0.53423 1.64344,-1.19666 z M 82.605756,84.427158 c 4.640068,-1.58324 9.530682,-3.14329 10.868032,-3.46678 2.752288,-0.66575 4.162694,-1.62847 5.184354,-3.53876 0.56197,-1.05078 0.58984,-1.42936 0.67482,-9.16584 0.10297,-9.37465 -0.0256,-10.38801 -1.50571,-11.86812 -1.189621,-1.18962 -9.182306,-5.2465 -12.605843,-6.3984 -5.001971,-1.68299 -7.426658,-1.60169 -11.641666,0.39033 -6.15744,2.91001 -12.121279,8.96607 -13.780577,13.99366 -0.91134,2.76131 -2.026446,4.97895 -4.051412,8.05714 -0.888188,1.35015 -1.614886,2.61688 -1.614886,2.81496 0,0.7573 0.975074,1.41999 2.679678,1.82118 3.435219,0.80851 5.082174,1.83979 8.565113,5.36327 1.74625,1.76658 3.591719,3.42702 4.101042,3.68988 1.099698,0.56754 3.032493,1.12938 3.99893,1.16244 0.380401,0.013 4.488057,-1.27172 9.128125,-2.85496 z m 48.134544,2.47103 c 2.0893,-0.54002 4.09753,-1.90591 5.54759,-3.77316 2.63179,-3.38899 5.20311,-4.96851 10.39494,-6.38543 0.83179,-0.227 1.20689,-0.49547 1.39927,-1.00147 0.23126,-0.60826 0.0884,-0.95084 -1.18921,-2.85114 -2.01599,-2.9986 -3.41531,-5.71446 -4.2284,-8.20665 -0.38045,-1.16613 -1.18803,-2.89254 -1.79462,-3.83646 -1.58978,-2.4739 -5.9735,-6.73402 -8.92502,-8.67337 -6.38743,-4.19698 -9.89294,-4.34829 -18.28073,-0.78906 -3.49477,1.48295 -8.36727,4.14965 -9.1982,5.03413 -1.31438,1.3991 -1.38514,1.96706 -1.38514,11.11829 v 8.55551 l 0.6972,1.39909 c 0.95957,1.9256 2.13793,2.69937 5.43032,3.56582 1.50481,0.39602 6.36743,1.95739 10.80582,3.46972 4.43838,1.51232 8.31266,2.7569 8.60951,2.76572 0.29685,0.009 1.24935,-0.16737 2.11667,-0.39154 z m 32.54981,-6.86846 c 0.93794,-6.9465 0.59817,-14.88631 -0.8531,-19.93559 -1.33298,-4.63771 -4.22107,-8.58782 -8.20247,-11.21871 -6.27871,-4.148948 -11.11334,-4.865646 -18.9796,-2.81359 -2.71858,0.70918 -6.28302,2.0746 -6.11701,2.34322 0.0716,0.11577 0.67484,0.29218 1.34065,0.39202 1.5695,0.23536 4.19301,1.61343 6.37107,3.34656 4.24024,3.37406 8.38232,9.56435 10.16139,15.18609 1.62071,5.12132 5.46495,9.82896 13.48433,16.51283 l 1.98437,1.65391 0.17297,-1.01358 c 0.0951,-0.55746 0.38197,-2.56139 0.6374,-4.45316 z m -120.127765,2.64334 c 3.904541,-3.2945 7.957381,-7.56313 9.746799,-10.26575 1.005213,-1.51822 1.742936,-3.07894 2.463609,-5.21201 2.775297,-8.2144 9.077363,-15.7689 14.975769,-17.95196 0.842204,-0.31171 1.804626,-0.56674 2.138715,-0.56674 1.818168,0 0.471925,-0.77646 -3.617479,-2.08641 -5.99128,-1.919177 -11.092459,-2.123515 -15.197814,-0.60878 -6.120213,2.25815 -10.873375,6.60566 -13.038335,11.92558 -2.237748,5.49879 -2.783972,14.43567 -1.449174,23.71023 0.453924,3.154 0.552672,3.57188 0.844067,3.57188 0.08355,0 1.493777,-1.13222 3.133843,-2.51604 z"
       id="path6" /><path
       style="fill:#f4e3d7"
       d="m 95.010993,199.9884 c -5.306755,-0.76862 -11.254237,-2.94315 -16.404167,-5.99773 -5.25204,-3.11514 -12.800428,-9.95598 -16.555147,-15.00336 l -1.965686,-2.64243 -0.17017,-6.88257 c -0.09359,-3.78542 -0.195777,-10.09726 -0.227075,-14.02633 l -0.05691,-7.14375 1.509058,-9.12812 c 1.245983,-7.53681 1.480643,-9.451 1.34606,-10.98021 -0.302532,-3.43753 -1.091824,-5.27995 -3.898378,-9.09985 -1.004285,-1.36689 -1.941327,-2.67658 -2.082316,-2.91041 -0.231312,-0.38364 -0.288658,-0.38501 -0.587267,-0.014 -0.182008,0.22612 -1.295585,1.65487 -2.474616,3.175 l -2.143692,2.76385 -0.162179,3.57188 c -0.272232,5.99572 -1.655906,11.21927 -4.543209,17.15122 -1.33156,2.73568 -1.845501,3.53611 -2.481706,3.86511 -1.142392,0.59075 -1.766452,0.51774 -2.67249,-0.31269 -0.476963,-0.43715 -4.201643,-6.95903 -9.330737,-16.33802 l -8.536878,-15.61041 0.05967,-2.34918 c 0.08477,-3.33732 0.747307,-6.95702 1.924668,-10.5152 1.834446,-5.544002 4.018277,-9.240522 7.73617,-13.094832 l 2.325947,-2.41129 -0.37644,-1.82204 c -1.12432,-5.44193 -1.376447,-13.32904 -0.582635,-18.22621 1.317504,-8.12793 3.440252,-12.46343 8.438851,-17.23549 2.838573,-2.70993 5.920127,-4.854653 9.828484,-6.84051 4.217353,-2.142859 5.787686,-2.595888 7.851901,-2.265212 0.927924,0.148648 7.162008,1.166193 13.853519,2.26121 14.861181,2.431924 18.501266,2.816247 26.595077,2.807928 8.31981,-0.0086 11.92787,-0.402984 28.17812,-3.080429 12.0155,-1.979712 13.8924,-2.229681 14.81667,-1.973303 2.07462,0.575466 8.99577,4.235931 11.37708,6.017126 8.5537,6.39805 12.02639,13.45127 12.48043,25.34835 0.16763,4.39248 -0.10156,8.26894 -0.88233,12.70596 l -0.42228,2.3998 1.52057,1.43666 c 3.58442,3.38662 7.28366,9.59446 8.73934,14.665822 0.92095,3.20845 1.71532,7.96797 1.71532,10.27747 v 1.89051 l -8.62456,15.79244 c -4.74351,8.68585 -8.86068,16.00613 -9.14926,16.26729 -0.76335,0.69082 -2.40983,0.62464 -3.21216,-0.12912 -1.53608,-1.44306 -4.65943,-9.02466 -5.70394,-13.8457 -0.58158,-2.68431 -1.16552,-7.98222 -1.04174,-9.45135 0.0649,-0.77001 -0.25504,-1.32892 -2.30222,-4.02202 -1.30767,-1.72025 -2.45556,-3.10375 -2.55087,-3.07445 -0.2975,0.0914 -3.60913,4.73654 -4.56509,6.40327 -1.14139,1.99003 -1.74391,4.30141 -1.74391,6.68992 0,1.01807 0.66385,5.88244 1.47523,10.80972 l 1.47523,8.95869 -0.15849,12.17083 c -0.0872,6.69396 -0.22568,12.92397 -0.30781,13.84447 -0.14373,1.61102 -0.22638,1.7694 -2.20908,4.23333 -2.24921,2.79512 -6.68227,7.19311 -9.80203,9.72449 -7.50883,6.09267 -16.10738,10.03356 -24.47201,11.21604 -2.21448,0.31305 -8.623959,0.29995 -10.847921,-0.0222 z m 3.719739,-8.54776 c 0.5014,-0.36663 0.51359,-0.90738 0.51359,-22.77754 v -22.402 l -0.62462,-0.50578 c -0.55635,-0.45051 -1.08353,-0.50579 -4.823292,-0.50579 -4.748828,0 -5.826474,0.26094 -6.880858,1.66617 -0.633244,0.84395 -0.63577,0.87459 -0.626141,7.59424 0.0151,10.53941 1.29131,17.48177 4.790858,26.06146 1.432332,3.51159 4.984849,10.4539 5.584941,10.91406 0.570779,0.43769 1.431192,0.41902 2.065522,-0.0448 z m 7.125108,-0.0561 c 0.60987,-0.60986 4.43769,-8.32723 5.69233,-11.47646 2.74982,-6.90217 4.02395,-12.90254 4.52228,-21.29714 0.39779,-6.70085 0.24584,-10.49114 -0.4584,-11.43439 -1.29598,-1.73582 -1.52209,-1.79477 -6.88346,-1.79477 -4.54184,0 -4.92393,0.0372 -5.27226,0.51359 -0.31725,0.43386 -0.37555,3.94671 -0.37555,22.62915 0,19.58808 0.0471,22.18276 0.41188,22.70359 0.49415,0.7055 1.73217,0.78745 2.36318,0.15643 z M 81.861201,176.15286 c 0.447327,-0.44733 0.405872,-5.30472 -0.07181,-8.41375 -0.501967,-3.26711 -1.218044,-5.77382 -2.496463,-8.73914 -1.805843,-4.18869 -3.426039,-6.53352 -7.888593,-11.41679 -4.276252,-4.6794 -4.610952,-4.48243 -5.118788,3.0125 -0.571078,8.42829 0.0175,10.03134 6.391548,17.40801 7.051869,8.16111 7.345799,8.46667 8.14441,8.46667 0.397205,0 0.865067,-0.14288 1.039692,-0.3175 z m 45.355939,-5.3049 c 6.0297,-6.9596 6.68345,-7.81017 7.77845,-10.12031 1.34927,-2.84659 1.53759,-4.75307 1.04806,-10.61006 -0.22702,-2.71617 -0.54783,-5.10123 -0.71292,-5.30015 -0.73394,-0.88433 -1.46746,-0.40359 -4.59542,3.01177 -7.23194,7.89645 -10.06359,14.39401 -10.61132,24.34894 -0.15959,2.9005 -0.12815,3.30431 0.29358,3.77031 0.25977,0.28704 0.79993,0.5219 1.20035,0.5219 0.61868,0 1.45981,-0.84461 5.59922,-5.6224 z M 77.461513,148.51581 c 0.422069,-0.38197 0.483855,-0.88262 0.483855,-3.92073 0,-5.4103 -0.107809,-5.65362 -4.311281,-9.73045 -4.778044,-4.63409 -5.213719,-4.59181 -5.213719,0.50601 0,4.67651 0.256835,5.24671 4.372377,9.7071 2.871254,3.11184 3.553643,3.75765 4.073456,3.85506 0.0613,0.0115 0.329192,-0.17616 0.595312,-0.41699 z m 51.996997,-3.277 c 4.06042,-4.36289 4.40579,-5.09303 4.5349,-9.58724 0.10274,-3.57612 -0.0491,-4.16038 -1.08119,-4.16038 -0.56528,0 -1.4045,0.6877 -4.91974,4.03152 -3.21376,3.05703 -3.58758,3.97938 -3.60178,8.88679 -0.01,3.38761 0.041,3.8283 0.4779,4.1491 0.28894,0.21214 0.70009,0.28079 1.00537,0.16785 0.28408,-0.10509 1.89713,-1.67453 3.58454,-3.48764 z m -30.816328,-2.84091 0.60214,-0.60266 v -9.67285 -9.67285 l -0.76097,-0.65456 c -0.75816,-0.65214 -0.77884,-0.65425 -5.603902,-0.5724 -4.408017,0.0748 -4.90994,0.13136 -5.58903,0.63013 -1.606934,1.18022 -1.671272,1.57441 -1.671725,10.24229 -4.35e-4,8.3407 0.08513,9.01688 1.275153,10.07687 0.881129,0.78485 2.005042,0.93177 6.721254,0.87859 4.21865,-0.0476 4.45301,-0.078 5.02708,-0.65256 z m 16.299498,0.12123 c 0.54552,-0.29714 1.07195,-0.90097 1.38325,-1.58663 0.45626,-1.00494 0.5031,-1.81488 0.50837,-8.78993 0.006,-7.4473 -0.0125,-7.71922 -0.5895,-8.86354 -0.95561,-1.89504 -1.64238,-2.10569 -6.86671,-2.10618 -4.71883,-4.4e-4 -5.51558,0.16307 -6.00255,1.23184 -0.19727,0.43298 -0.29376,3.66285 -0.29376,9.83383 0,9.90609 0.0194,10.05157 1.41737,10.64307 0.31186,0.13194 2.59107,0.2123 5.06492,0.17856 3.76461,-0.0513 4.6415,-0.13954 5.37861,-0.54102 z M 77.893225,129.63574 c 0.135256,-7.36164 -0.444022,-8.94026 -5.326629,-14.51589 -1.736159,-1.98259 -3.349542,-3.6047 -3.585295,-3.6047 -0.382709,0 -0.428642,0.65211 -0.428642,6.08542 0,6.64766 0.101282,7.29303 1.514015,9.6473 0.976488,1.62729 6.697869,6.93717 7.349527,6.82093 0.329974,-0.0589 0.410386,-0.80614 0.477024,-4.43306 z m 49.976835,2.24788 c 2.81959,-2.44833 4.03358,-3.83661 4.97824,-5.69291 0.98666,-1.93886 1.22261,-3.91521 1.13612,-9.51618 -0.0735,-4.76065 -0.11645,-5.15938 -0.5555,-5.15938 -0.27782,0 -1.74018,1.43129 -3.51426,3.43958 -4.87949,5.5237 -5.66014,7.61336 -5.6652,15.16479 -0.002,2.81939 0.2324,4.01751 0.78564,4.01751 0.13193,0 1.40766,-1.01404 2.83496,-2.25341 z m -89.802132,-7.36643 c 1.197833,-0.50567 4.818137,-4.37786 6.59039,-7.04891 3.127114,-4.71305 5.86948,-10.98899 8.092948,-18.520842 l 1.210665,-4.10104 0.106482,-6.12407 c 0.09182,-5.28068 0.04716,-6.23877 -0.324252,-6.95701 -0.461528,-0.8925 -1.819124,-1.86527 -2.605415,-1.86689 -0.264319,-5.4e-4 -2.025392,1.12602 -3.913495,2.50347 -1.888102,1.37744 -4.190389,3.00246 -5.116193,3.61114 l -1.683278,1.10669 -3.342515,8.45135 c -3.790388,9.583762 -4.116389,10.645952 -4.118793,13.419972 -0.0026,3.01075 1.311565,13.79017 1.769921,14.51767 0.337911,0.53632 1.662888,1.32689 2.275202,1.35753 0.113814,0.006 0.590064,-0.15138 1.058333,-0.34906 z m 128.906722,-0.3244 c 0.3634,-0.23811 0.78062,-0.86626 0.92717,-1.39591 0.34919,-1.26204 1.58938,-12.11225 1.58938,-13.90526 0,-2.24798 -0.81528,-4.82728 -4.25301,-13.455292 l -3.24382,-8.14132 -3.45401,-2.43296 c -1.8997,-1.33812 -4.19719,-3.00257 -5.10553,-3.69878 -0.90834,-0.69621 -1.87636,-1.26583 -2.15116,-1.26583 -0.79865,0 -2.25773,1.12165 -2.76029,2.12194 -0.39059,0.77742 -0.46267,1.68386 -0.46302,5.8222 -3.8e-4,4.53262 0.0585,5.14259 0.78223,8.10647 2.69717,11.045332 6.91717,20.105102 11.89231,25.531192 2.93479,3.2008 4.47431,3.87031 6.23975,2.71355 z M 30.995273,114.02869 c 0.05376,-8.82802 0.419244,-10.76841 3.082795,-16.366742 1.263944,-2.65659 1.418402,-3.47701 0.654608,-3.47701 -0.511152,0 -2.855733,2.53488 -4.002077,4.3269 -2.083364,3.256822 -3.47983,8.044922 -3.75388,12.871022 -0.179104,3.15407 0.143962,4.47145 1.901565,7.7541 0.775123,1.44768 1.073312,1.78505 1.520092,1.71979 0.546793,-0.0799 0.556478,-0.19066 0.596897,-6.82806 z m 142.657277,4.80639 c 1.72129,-3.18864 2.02944,-4.74211 1.65219,-8.32923 -0.39659,-3.77108 -1.30469,-7.35818 -2.4829,-9.80778 -1.76167,-3.662662 -4.70128,-6.977492 -5.55751,-6.266882 -0.31435,0.26089 -0.16777,0.74076 0.92506,3.02851 2.7548,5.766912 3.15389,7.879102 3.15389,16.691842 0,3.52195 0.0794,6.48292 0.17639,6.57993 0.52551,0.52551 1.10235,0.0126 2.13288,-1.89639 z m -74.912248,-1.13 c 0.4683,-0.51747 0.50402,-1.04202 0.50402,-7.40098 0,-6.73 -0.01,-6.85389 -0.59101,-7.43506 -0.56917,-0.56917 -0.66802,-0.57979 -2.674655,-0.28732 -2.956181,0.43087 -6.122287,1.54628 -8.577172,3.02171 -4.49079,2.69904 -5.566265,3.95123 -5.54377,6.4547 0.01032,1.1482 0.206192,1.73784 1.06681,3.21142 1.053732,1.80424 1.682498,2.53022 2.429176,2.80477 0.218281,0.0803 3.206156,0.15533 6.639722,0.16682 6.024199,0.0201 6.260499,0.001 6.746879,-0.53606 z m 18.629888,0.15908 c 1.16568,-0.60279 2.97362,-3.81495 3.11642,-5.53691 0.18986,-2.28945 -0.65205,-3.54418 -3.77979,-5.63314 -3.51514,-2.34771 -7.3782,-3.84006 -10.8906,-4.20718 -1.4173,-0.14813 -1.67592,-0.10109 -2.17215,0.39514 -0.54542,0.54542 -0.56329,0.77883 -0.56329,7.35926 0,6.61343 0.0155,6.81241 0.57529,7.40833 0.56952,0.60623 0.63729,0.61237 6.76001,0.61237 4.98688,0 6.33374,-0.0771 6.95411,-0.39787 z m -68.026382,-1.88372 c 1.542087,-1.7519 2.834854,-3.77724 4.005441,-6.27521 1.272717,-2.71591 1.562731,-3.96064 1.570901,-6.74229 0.0096,-3.262352 -0.495302,-2.88235 -2.222855,1.67304 -1.364616,3.59837 -2.671903,6.6542 -4.357774,10.18646 -0.451451,0.94589 -0.820913,1.86862 -0.821028,2.05052 -4.27e-4,0.67615 0.780732,0.29419 1.825315,-0.89252 z m 105.438382,0.99853 c 0.0764,-0.1236 -0.28533,-1.10586 -0.80382,-2.18281 -1.43382,-2.97818 -3.88736,-8.81061 -4.85844,-11.54924 -0.56181,-1.58441 -1.00506,-2.44739 -1.25704,-2.44739 -0.32596,0 -0.37153,0.4838 -0.28038,2.97656 0.0959,2.6228 0.21016,3.21516 0.96143,4.98418 1.14839,2.70415 2.9928,5.6592 4.48558,7.18665 1.25081,1.27986 1.50647,1.4304 1.75267,1.03205 z M 83.703757,103.32465 c 2.991516,-1.31529 6.277972,-2.36135 10.513486,-3.346382 2.360956,-0.54908 3.920039,-1.05281 4.299479,-1.38914 0.58648,-0.51985 0.59531,-0.62284 0.59531,-6.94221 0,-3.52799 -0.0773,-6.6161 -0.17189,-6.86247 -0.0945,-0.24636 -0.52893,-0.59806 -0.96531,-0.78154 -0.734986,-0.30904 -1.516137,-0.0925 -10.605913,2.93983 -5.396869,1.8004 -10.071582,3.27345 -10.388251,3.27345 -0.318115,0 -0.88228,0.36428 -1.260739,0.81405 -0.858313,1.02005 -0.910467,2.63762 -0.162663,5.04506 0.978691,3.15075 4.440278,8.163812 5.637224,8.163812 0.236178,0 1.365348,-0.41151 2.509267,-0.91446 z m 38.823563,-0.28995 c 2.39296,-2.46217 4.89684,-7.555102 4.89414,-9.954742 -10e-4,-1.21915 -0.86974,-2.55194 -1.77674,-2.727 -0.4047,-0.0781 -5.21377,-1.61347 -10.68682,-3.41189 -9.19655,-3.02196 -10.01099,-3.24465 -10.74217,-2.93722 -0.43514,0.18297 -0.86852,0.53424 -0.96306,0.7806 -0.0945,0.24637 -0.17189,3.33448 -0.17189,6.86247 0,7.75231 -0.3393,7.1322 4.49792,8.22048 3.97796,0.894972 7.84821,2.126292 10.71562,3.409202 1.16417,0.52085 2.32947,0.9505 2.58956,0.95476 0.26009,0.004 0.99964,-0.53423 1.64344,-1.19666 z M 82.605756,84.427158 c 4.640068,-1.58324 9.530682,-3.14329 10.868032,-3.46678 2.752288,-0.66575 4.162694,-1.62847 5.184354,-3.53876 0.56197,-1.05078 0.58984,-1.42936 0.67482,-9.16584 0.10297,-9.37465 -0.0256,-10.38801 -1.50571,-11.86812 -1.189621,-1.18962 -9.182306,-5.2465 -12.605843,-6.3984 -5.001971,-1.68299 -7.426658,-1.60169 -11.641666,0.39033 -6.15744,2.91001 -12.121279,8.96607 -13.780577,13.99366 -0.91134,2.76131 -2.026446,4.97895 -4.051412,8.05714 -0.888188,1.35015 -1.614886,2.61688 -1.614886,2.81496 0,0.7573 0.975074,1.41999 2.679678,1.82118 3.435219,0.80851 5.082174,1.83979 8.565113,5.36327 1.74625,1.76658 3.591719,3.42702 4.101042,3.68988 1.099698,0.56754 3.032493,1.12938 3.99893,1.16244 0.380401,0.013 4.488057,-1.27172 9.128125,-2.85496 z m 48.134544,2.47103 c 2.0893,-0.54002 4.09753,-1.90591 5.54759,-3.77316 2.63179,-3.38899 5.20311,-4.96851 10.39494,-6.38543 0.83179,-0.227 1.20689,-0.49547 1.39927,-1.00147 0.23126,-0.60826 0.0884,-0.95084 -1.18921,-2.85114 -2.01599,-2.9986 -3.41531,-5.71446 -4.2284,-8.20665 -0.38045,-1.16613 -1.18803,-2.89254 -1.79462,-3.83646 -1.58978,-2.4739 -5.9735,-6.73402 -8.92502,-8.67337 -6.38743,-4.19698 -9.89294,-4.34829 -18.28073,-0.78906 -3.49477,1.48295 -8.36727,4.14965 -9.1982,5.03413 -1.31438,1.3991 -1.38514,1.96706 -1.38514,11.11829 v 8.55551 l 0.6972,1.39909 c 0.95957,1.9256 2.13793,2.69937 5.43032,3.56582 1.50481,0.39602 6.36743,1.95739 10.80582,3.46972 4.43838,1.51232 8.31266,2.7569 8.60951,2.76572 0.29685,0.009 1.24935,-0.16737 2.11667,-0.39154 z m 32.54981,-6.86846 c 0.93794,-6.9465 0.59817,-14.88631 -0.8531,-19.93559 -1.33298,-4.63771 -4.22107,-8.58782 -8.20247,-11.21871 -6.27871,-4.148948 -11.11334,-4.865646 -18.9796,-2.81359 -2.71858,0.70918 -6.28302,2.0746 -6.11701,2.34322 0.0716,0.11577 0.67484,0.29218 1.34065,0.39202 1.5695,0.23536 4.19301,1.61343 6.37107,3.34656 4.24024,3.37406 8.38232,9.56435 10.16139,15.18609 1.62071,5.12132 5.46495,9.82896 13.48433,16.51283 l 1.98437,1.65391 0.17297,-1.01358 c 0.0951,-0.55746 0.38197,-2.56139 0.6374,-4.45316 z m -120.127765,2.64334 c 3.904541,-3.2945 7.957381,-7.56313 9.746799,-10.26575 1.005213,-1.51822 1.742936,-3.07894 2.463609,-5.21201 2.775297,-8.2144 9.077363,-15.7689 14.975769,-17.95196 0.842204,-0.31171 1.804626,-0.56674 2.138715,-0.56674 1.818168,0 0.471925,-0.77646 -3.617479,-2.08641 -5.99128,-1.919177 -11.092459,-2.123515 -15.197814,-0.60878 -6.120213,2.25815 -10.873375,6.60566 -13.038335,11.92558 -2.237748,5.49879 -2.783972,14.43567 -1.449174,23.71023 0.453924,3.154 0.552672,3.57188 0.844067,3.57188 0.08355,0 1.493777,-1.13222 3.133843,-2.51604 z"
       id="path7" /></g></svg>
